<svg width="100" height="100" viewBox="0 0 100 100" fill="none" xmlns="http://www.w3.org/2000/svg">
<path d="M49.7968 72.8447C35.9732 72.8447 23.544 71.8488 14.8196 70.0561C6.17486 68.2634 1.19519 65.7138 1.19519 63.0447C1.19519 58.3041 18.7236 53.2845 51.2309 53.2845C65.1342 53.2845 76.9659 54.2406 85.4911 56.0732C93.6976 57.826 98.3984 60.3756 98.3984 63.0845C98.3984 67.9049 81.7065 72.8447 49.7968 72.8447Z" fill="white"/>
<path d="M51.2309 54.4797C65.0544 54.4797 76.8064 55.4358 85.2121 57.2284C89.395 58.1049 92.582 59.1805 94.6934 60.4154C95.6097 60.9333 97.1633 62.0089 97.1633 63.0845C97.1633 64.2796 94.4942 66.8691 84.4951 68.9008C75.8503 70.6935 63.5008 71.6496 49.7569 71.6496C36.013 71.6496 23.6634 70.6536 15.0187 68.9008C5.05935 66.8292 2.39024 64.2398 2.39024 63.0447C2.39024 61.9292 5.17886 59.3 15.7756 57.2284C24.7788 55.4358 37.3675 54.4797 51.2309 54.4797ZM51.2309 52.0894C23.7431 52.0894 0 55.9138 0 63.0447C0 70.1756 22.3089 74 49.7967 74C77.2845 74 99.5934 70.1756 99.5934 63.0447C99.5934 55.9138 78.7186 52.0894 51.2309 52.0894Z" fill="black"/>
<path d="M49.7966 61.4512C40.395 61.4512 31.4715 60.6943 23.9024 59.2601C23.504 59.1805 23.2251 58.7821 23.265 58.3837C23.3048 58.1049 23.3446 57.8658 23.3845 57.587C23.3845 57.5471 23.3845 57.5471 23.3845 57.5073C23.4641 57.0292 23.5438 56.5512 23.6235 56.0333L23.6633 55.8341C23.7828 55.1967 23.9024 54.5593 24.0219 53.9219L24.0617 53.6431C24.1812 53.0057 24.3406 52.3683 24.4601 51.7309C24.4601 51.7309 24.4601 51.691 24.4601 51.6512C27.4877 38.7439 32.9056 30.4577 40.634 27.0317C42.2275 26.3146 43.9804 26.235 45.6536 26.235C46.291 26.235 46.9283 26.235 47.6056 26.2748C48.3227 26.2748 49.0397 26.3146 49.7966 26.3146C50.7926 26.3146 51.7088 26.2748 52.6251 26.235C53.4617 26.1951 54.2584 26.1951 55.0153 26.1951C56.8479 26.1951 58.1226 26.3545 59.2381 26.7927C67.7633 29.9797 72.9422 37.8675 75.5316 51.6512V51.7309C75.6511 52.3683 75.7706 53.0057 75.8503 53.6431L75.8901 53.9219C76.0096 54.5593 76.0893 55.1569 76.169 55.7943L76.2088 56.0333C76.2885 56.5114 76.3283 57.0292 76.408 57.5073C76.408 57.5471 76.408 57.5471 76.408 57.587C76.4478 57.8658 76.4877 58.1049 76.5275 58.3837C76.5674 58.7821 76.2885 59.1805 75.8901 59.2601C68.321 60.6943 59.3178 61.4512 49.7966 61.4512Z" fill="white"/>
<path d="M55.0154 27.3902C56.7284 27.3902 57.8439 27.5496 58.8398 27.9081C63.0626 29.5016 66.4089 32.3301 68.9983 36.5528C71.3886 40.4569 73.1414 45.4764 74.3764 51.8902C74.3764 51.8902 74.3764 51.8902 74.3764 51.9301V51.9699C74.4959 52.5675 74.6154 53.2049 74.6951 53.8423L74.7349 54.1211C74.8544 54.7585 74.9341 55.3561 75.0138 55.9536L75.0536 56.1528V56.1927C75.1333 56.6707 75.1731 57.1488 75.2528 57.6268C75.2528 57.6666 75.2528 57.7065 75.2528 57.7463C75.2528 57.8658 75.2926 58.0252 75.2926 58.1447C67.843 59.539 59.039 60.2959 49.7569 60.2959C40.5943 60.2959 31.8699 59.5788 24.5 58.2244C24.5 58.1049 24.5398 57.9853 24.5797 57.8658C24.5797 57.826 24.5797 57.7862 24.5797 57.7463C24.6593 57.2683 24.739 56.8301 24.8187 56.352V56.2723L24.8585 56.1528C24.978 55.5553 25.0976 54.9179 25.2171 54.2805L25.2569 54.0016C25.3764 53.3642 25.5358 52.7268 25.6553 52.1292V52.0894V52.0496C28.5634 39.4211 33.7423 31.374 41.1122 28.1472C42.5065 27.5496 44.1 27.4699 45.6536 27.4699C46.2512 27.4699 46.8886 27.4699 47.5658 27.5098C48.2829 27.5098 49.0398 27.5496 49.7967 27.5496C50.7927 27.5496 51.7487 27.5098 52.665 27.4699C53.5016 27.4301 54.2585 27.3902 55.0154 27.3902ZM55.0154 25C53.3821 25 51.6691 25.1195 49.7967 25.1195C48.3626 25.1195 46.9683 25.0398 45.6536 25.0398C43.7016 25.0398 41.8691 25.1992 40.1561 25.9163C31.3122 29.8203 26.1333 39.3415 23.3846 51.4122C23.3846 51.452 23.3846 51.452 23.3846 51.4918C23.2252 52.1292 23.1057 52.7666 22.9862 53.404C22.9862 53.4837 22.9463 53.6032 22.9463 53.6829C22.8268 54.3203 22.7073 54.9577 22.5878 55.5951C22.5878 55.6748 22.548 55.7544 22.548 55.7943C22.4683 56.3122 22.3488 56.8301 22.2691 57.3479C22.2293 57.6268 22.1894 57.8658 22.1496 58.1447C21.9902 59.1805 22.6675 60.1764 23.7431 60.3756C31.0732 61.7699 40.1162 62.5666 49.8366 62.5666C59.7162 62.5666 68.839 61.7301 76.2089 60.2959C77.2447 60.0967 77.9219 59.1406 77.8024 58.1049C77.7625 57.826 77.7227 57.587 77.6829 57.3081C77.6032 56.7902 77.5634 56.2723 77.4837 55.7146C77.4837 55.6349 77.4438 55.5553 77.4438 55.4756C77.3642 54.8382 77.2447 54.2008 77.165 53.5634C77.165 53.4837 77.1252 53.3642 77.1252 53.2845C77.0056 52.6471 76.8861 52.0097 76.7666 51.3723C76.7666 51.3325 76.7666 51.3325 76.7666 51.2927C74.456 38.9431 69.6357 29.2228 59.7162 25.5179C58.2422 25.1195 56.6886 25 55.0154 25Z" fill="black"/>
</svg>
