<svg width="100" height="100" viewBox="0 0 100 100" fill="none" xmlns="http://www.w3.org/2000/svg">
<path d="M67.3911 96.6667H33.419C28.9555 96.6667 25.3186 93.0298 25.3186 88.5663L26.5585 21.862C26.5585 12.5218 34.1216 5 43.4205 5H57.3482C66.6885 5 74.2103 12.5631 74.2103 21.862L75.4501 88.5663C75.4915 93.0711 71.8545 96.6667 67.3911 96.6667Z" fill="white" stroke="black" stroke-width="3.28677" stroke-miterlimit="10" stroke-linecap="round" stroke-linejoin="round"/>
<path d="M24.1614 88.8969L21.1031 88.1943L17.8795 86.5412C15.3584 85.9626 13.3333 82.491 13.3333 78.8127V76.1264C13.3333 72.4482 15.3584 69.9271 17.8795 70.547L20.6072 72.0762L24.1201 72.9028C24.74 73.0268 25.1947 73.8947 25.1947 74.7626V87.5744C25.2773 88.4423 24.7814 89.0209 24.1614 88.8969Z" fill="white" stroke="black" stroke-width="3.28677" stroke-miterlimit="10" stroke-linecap="round" stroke-linejoin="round"/>
<path d="M64.9114 34.4672C63.2169 35.2524 62.101 36.4923 62.101 38.3934V74.6798C62.101 79.5979 58.0921 83.6068 53.1741 83.6068H47.2227C42.3046 83.6068 38.2958 79.5979 38.2958 74.6798V38.3934C38.2958 37.2362 37.1386 35.707 35.8574 35.0871" stroke="black" stroke-width="1.64339" stroke-miterlimit="10" stroke-linecap="round" stroke-linejoin="round"/>
<path d="M32.8818 49.1801L33.2951 41.7823C33.2951 34.4259 39.2463 28.4332 46.6441 28.4332H54.166C61.5224 28.4332 67.5151 34.3845 67.5151 41.7823V49.1801" stroke="black" stroke-width="1.64339" stroke-miterlimit="10" stroke-linecap="round" stroke-linejoin="round"/>
<path d="M70.4908 49.3454L70.2841 38.8893C70.2841 38.8893 69.9535 32.4834 74.2103 30.169" stroke="black" stroke-width="1.64339" stroke-miterlimit="10" stroke-linecap="round" stroke-linejoin="round"/>
<path d="M30.526 49.1802V38.9307C30.526 38.9307 31.4352 30.2104 26.5998 30.2104" stroke="black" stroke-width="1.64339" stroke-miterlimit="10" stroke-linecap="round" stroke-linejoin="round"/>
<path d="M25.3186 88.8969C25.4839 93.195 29.0382 96.6666 33.419 96.6666H67.3911C71.7719 96.6666 75.2848 93.2364 75.4914 88.8969H25.3186Z" fill="black"/>
<path d="M33.8736 51.1226H30.2367C29.3688 51.1226 28.6662 50.4201 28.6662 49.5522V44.882C28.6662 44.0141 29.3688 43.3116 30.2367 43.3116H33.8736C34.7415 43.3116 35.4441 44.0141 35.4441 44.882V49.5522C35.4028 50.4614 34.7002 51.1226 33.8736 51.1226Z" fill="black"/>
<path d="M70.8213 51.1226H67.1845C66.3166 51.1226 65.614 50.4201 65.614 49.5522V44.882C65.614 44.0141 66.3166 43.3116 67.1845 43.3116H70.8213C71.6892 43.3116 72.3918 44.0141 72.3918 44.882V49.5522C72.3918 50.4614 71.6892 51.1226 70.8213 51.1226Z" fill="black"/>
<path d="M76.8553 88.8969L79.9136 88.1943L83.1372 86.5412C85.6583 85.9626 87.6834 82.491 87.6834 78.8127V76.1264C87.6834 72.4482 85.6583 69.9271 83.1372 70.547L80.4096 72.0762L76.8966 72.9028C76.2767 73.0268 75.8221 73.8947 75.8221 74.7626V87.5744C75.7808 88.4423 76.2767 89.0209 76.8553 88.8969Z" fill="white" stroke="black" stroke-width="3.28677" stroke-miterlimit="10" stroke-linecap="round" stroke-linejoin="round"/>
<path d="M32.8405 9.7115C32.8405 9.7115 33.6257 17.0267 43.0899 17.0267C52.5541 17.0267 57.0176 17.0267 57.0176 17.0267C57.0176 17.0267 65.9032 18.1425 68.5069 9.2569" stroke="black" stroke-width="1.64339" stroke-miterlimit="10" stroke-linecap="round" stroke-linejoin="round"/>
</svg>
