<svg width="61" height="60" viewBox="0 0 61 60" fill="none" xmlns="http://www.w3.org/2000/svg">
<g clip-path="url(#clip0)">
<path d="M1.72382 44.9113C2.18708 42.5371 3.92431 34.401 7.63042 26.3808C10.2073 20.8506 13.2185 16.4496 16.5482 13.2936C20.6886 9.44274 25.3792 7.47388 30.4751 7.47388C35.542 7.47388 40.2325 9.35588 44.4019 13.062C47.8185 16.0732 50.9165 20.2715 53.6092 25.5701C57.6917 33.6193 59.6317 41.7264 60.1239 43.9558C58.0102 44.5349 53.5224 45.5772 48.4265 46.7643C42.8963 48.0383 36.6712 49.486 30.9094 50.9048L1.72382 44.9113Z" fill="#1FC776"/>
<path d="M30.4751 8.1977C35.3393 8.1977 39.8561 9.99284 43.9097 13.5542C47.2394 16.4785 50.2795 20.59 52.9433 25.8017C56.7363 33.2139 58.6472 40.5682 59.2842 43.4346C56.9969 44.0426 52.9144 44.9692 48.2817 46.0405C42.8094 47.3144 36.6133 48.7332 30.9094 50.1519L2.59244 44.3611C3.20047 41.3789 4.9377 33.9956 8.32531 26.6703C10.8443 21.227 13.7976 16.9128 17.0694 13.8437C21.065 10.1087 25.5819 8.1977 30.4751 8.1977ZM30.4751 6.75C7.25402 6.75 0.884155 45.4903 0.884155 45.4903L30.9383 51.6286C42.9542 48.6174 57.6049 45.4903 60.9925 44.448C61.0215 44.448 53.7251 6.75 30.4751 6.75Z" fill="black"/>
<path d="M14.811 47.6909L21.2677 17.8104" stroke="black" stroke-width="1.4477" stroke-miterlimit="10" stroke-linecap="round" stroke-linejoin="round"/>
<path d="M4.0112 47.3723C4.0112 47.3723 10.7864 16.3047 21.6731 17.8103C33.4284 19.4607 28.8537 52.4971 28.8247 52.5261" stroke="black" stroke-width="1.4477" stroke-miterlimit="10" stroke-linecap="round" stroke-linejoin="round"/>
<path d="M57.3443 47.2564C57.3443 47.2564 57.1995 46.5616 56.7942 44.8533" stroke="black" stroke-width="1.4477" stroke-miterlimit="10" stroke-linecap="round" stroke-linejoin="round"/>
</g>
<defs>
<clipPath id="clip0">
<rect width="60.0794" height="46.5" fill="white" transform="translate(0.884155 6.75)"/>
</clipPath>
</defs>
</svg>
